#!OML:ASF F:\VICON\USERDATA\INSTALL\rory3\rory3.ASF
:FULLY-SPECIFIED
:DEGREES
2151
root 2.32975 18.0772 0.757874 -1.07254 32.2742 -16.6751
lowerback 6.75379 2.90079 -4.01933
upperback 1.40728 3.47115 -6.07247
thorax -2.18525 1.76607 -4.34427
lowerneck -21.1306 -16.138 -15.8748
upperneck 2.31442 -19.6737 19.6785
head 7.71798 -8.37228 5.9776
rclavicle 1.27222e-014 1.27222e-014
rhumerus 44.6493 32.847 8.03307
rradius 68.0677
rwrist 54.0741
rhand -63.0988 18.5397
rfingers 7.12502
rthumb -35.0967 -7.99371
lclavicle 1.27222e-014 1.27222e-014
lhumerus -37.3901 7.32732 59.7471
lradius 61.9259
lwrist -1.08823
lhand -20.8391 18.895
lfingers 7.12502
lthumb 5.52966 48.8029
rfemur -9.85652 -14.6328 25.259
rtibia 27.8165
rfoot -14.0852 -19.9631
rtoes 2.51125
lfemur -22.1329 -13.0935 0.471067
ltibia 29.5911
lfoot -14.7207 -7.59335
ltoes -18.6648
2152
root 2.33205 18.0775 0.761896 -0.838965 32.1651 -16.4139
lowerback 6.58321 2.90074 -4.2098
upperback 1.39187 3.47016 -6.13625
thorax -2.11329 1.76668 -4.2948
lowerneck -21.333 -16.0886 -15.8677
upperneck 2.65483 -19.6204 19.5919
head 7.83878 -8.33118 5.94768
rclavicle 2.3059e-014 -9.54166e-015
rhumerus 44.5469 31.689 7.40071
rradius 68.1393
rwrist 53.4639
rhand -62.5655 20.0902
rfingers 7.12502
rthumb -34.5906 -6.5605
lclavicle 2.3059e-014 -9.54166e-015
lhumerus -37.6334 7.49201 59.6543
lradius 61.8657
lwrist -1.06217
lhand -21.39 19.3504
lfingers 7.12502
lthumb 4.99778 49.2714
rfemur -9.8896 -14.6244 25.0502
rtibia 27.7754
rfoot -13.949 -19.8346
rtoes 1.84299
lfemur -22.167 -13.0948 0.243779
ltibia 29.6572
lfoot -14.7299 -7.42315
ltoes -18.6801
2153
root 2.33659 18.0759 0.757585 -0.713606 31.9833 -16.1631
lowerback 6.60667 2.92948 -4.2679
upperback 1.3735 3.49985 -6.23347
thorax -2.14138 1.78234 -4.36956
lowerneck -21.4346 -15.9867 -15.7947
upperneck 2.95257 -19.5191 19.4933
head 7.91502 -8.27603 5.92012
rclavicle 4.05521e-014 5.40694e-014
rhumerus 44.3484 30.3785 6.73791
rradius 68.1879
rwrist 52.875
rhand -62.7432 18.3798
rfingers 7.12502
rthumb -34.7593 -8.23217
lclavicle 4.05521e-014 5.40694e-014
lhumerus -37.7978 7.64713 59.5297
lradius 61.6959
lwrist -1.09668
lhand -22.1687 20.0861
lfingers 7.12502
lthumb 4.24587 50.0236
rfemur -9.84306 -14.5326 24.7963
rtibia 27.7348
rfoot -14.1068 -19.6317
rtoes 2.71632
lfemur -22.1001 -13.1264 -0.00624201
ltibia 29.7246
lfoot -14.7568 -7.20708
ltoes -18.4016
2154
root 2.33835 18.0711 0.753332 -0.787502 31.6909 -16.2124
lowerback 6.69195 2.98014 -4.08485
upperback 1.34974 3.56972 -6.27198
thorax -2.19705 1.81628 -4.5248
lowerneck -21.1964 -15.8608 -15.7209
upperneck 2.99023 -19.4163 19.5224
head 7.87206 -8.24117 5.95139
rclavicle -5.00937e-014 1.27222e-014
rhumerus 43.995 28.8063 6.18246
rradius 68.4335
rwrist 52.3874
rhand -63.4946 17.2158
rfingers 7.12502
rthumb -35.4719 -9.22877
lclavicle -5.00937e-014 1.27222e-014
lhumerus -37.9208 7.82008 59.3326
lradius 61.448
lwrist -1.28043
lhand -22.1751 20.2015
lfingers 7.12502
lthumb 4.23972 50.1391
rfemur -9.76187 -14.3241 24.8356
rtibia 27.6807
rfoot -14.2658 -19.5411
rtoes 3.76559
lfemur -21.9868 -12.9863 0.0149242
ltibia 29.8059
lfoot -14.819 -7.06378
ltoes -18.5282
2155
root 2.34193 18.0643 0.749859 -0.835381 31.3739 -16.2869
lowerback 6.71516 3.00729 -3.85492
upperback 1.31099 3.61604 -6.28983
thorax -2.23284 1.8379 -4.67925
lowerneck -20.3524 -15.7089 -15.9661
upperneck 2.48649 -19.2742 20.0277
head 7.64974 -8.2144 6.22298
rclavicle 4.05521e-014 -9.54166e-015
rhumerus 43.6534 26.9873 5.74923
rradius 68.7507
rwrist 52.0076
rhand -58.2458 23.3148
rfingers 7.12502
rthumb -30.4804 -4.18437
lclavicle 4.05521e-014 -9.54166e-015
lhumerus -38.1396 8.03633 59.1041
lradius 61.2463
lwrist -1.47486
lhand -21.7146 19.7443
lfingers 7.12502
lthumb 4.68435 49.6725
rfemur -9.69306 -14.1475 24.9068
rtibia 27.589
rfoot -14.3522 -19.4608
rtoes 4.37443
lfemur -21.9025 -12.819 0.060592
ltibia 29.9158
lfoot -14.9051 -6.88309
ltoes -19.0485
2156
root 2.34751 18.0599 0.746409 -0.740389 31.0735 -16.2332
lowerback 6.63518 3.05283 -3.71254
upperback 1.26523 3.6885 -6.31176
thorax -2.22165 1.87298 -4.78476
lowerneck -21.0443 -15.8155 -15.8264
upperneck 3.34821 -19.4275 19.5927
head 7.98899 -8.24494 5.98968
rclavicle -7.07673e-014 3.18055e-014
rhumerus 43.4802 25.1167 5.23239
rradius 68.6583
rwrist 51.623
rhand -50.6301 33.7831
rfingers 7.12502
rthumb -23.1938 5.1596
lclavicle -7.07673e-014 3.18055e-014
lhumerus -38.3802 8.0407 59.0228
lradius 61.1878
lwrist -1.42458
lhand -21.6257 19.6256
lfingers 7.12502
lthumb 4.77024 49.5519
rfemur -9.69723 -14.027 24.8653
rtibia 27.4665
rfoot -14.406 -19.4
rtoes 4.5955
lfemur -21.8718 -12.6818 0.000839326
ltibia 30.0141
lfoot -15.0228 -6.6601
ltoes -19.4228
2157
root 2.35397 18.0588 0.743157 -0.593038 30.7606 -16.0472
lowerback 6.60368 3.12529 -3.63472
upperback 1.20938 3.78704 -6.38553
thorax -2.24663 1.92165 -4.91481
lowerneck -21.3183 -15.841 -15.863
upperneck 3.77922 -19.4657 19.4789
head 8.16725 -8.24162 5.93368
rclavicle 2.94201e-014 7.95139e-014
rhumerus 43.429 23.1804 4.52729
rradius 68.135
rwrist 51.2645
rhand -62.7116 15.2069
rfingers 7.12502
rthumb -34.7293 -11.4119
lclavicle 2.94201e-014 7.95139e-014
lhumerus -38.566 7.895 58.9465
lradius 61.0928
lwrist -1.2833
lhand -21.5592 19.5383
lfingers 7.12502
lthumb 4.8344 49.4632
rfemur -9.67871 -13.9723 24.6936
rtibia 27.3169
rfoot -14.254 -19.2806
rtoes 3.65446
lfemur -21.7882 -12.5687 -0.188189
ltibia 30.0625
lfoot -15.1515 -6.46832
ltoes -19.6286
